<svg width="0" height="0" class="hidden">
  <symbol xmlns="http://www.w3.org/2000/svg" viewBox="0 0 16 22" id="bell">
    <path d="M15.125 17h-.563V9.031a6.561 6.561 0 00-5.624-6.494v-.912a.937.937 0 10-1.876 0v.912A6.561 6.561 0 001.438 9.03V17H.875a.75.75 0 00-.75.75v.75c0 .103.084.188.188.188h5.062A2.627 2.627 0 008 21.313a2.627 2.627 0 002.625-2.625h5.063a.188.188 0 00.187-.188v-.75a.75.75 0 00-.75-.75zM8 19.813a1.125 1.125 0 01-1.125-1.125h2.25c0 .62-.504 1.125-1.125 1.125zM3.125 17V9.031a4.84 4.84 0 011.427-3.447A4.841 4.841 0 018 4.156c1.303 0 2.527.506 3.448 1.428a4.842 4.842 0 011.427 3.447V17h-9.75z"></path>
  </symbol>
  <symbol xmlns="http://www.w3.org/2000/svg" viewBox="0 0 22 22" id="chat">
    <path d="M9.875 11a1.125 1.125 0 102.25 0 1.125 1.125 0 00-2.25 0zm4.688 0a1.125 1.125 0 102.25 0 1.125 1.125 0 00-2.25 0zm-9.375 0a1.125 1.125 0 102.25 0 1.125 1.125 0 00-2.25 0zm15.497-4.069A10.503 10.503 0 0011 .5h-.047A10.475 10.475 0 00.5 11.05a10.533 10.533 0 001.125 4.684v3.563a1.078 1.078 0 001.078 1.078h3.565a10.533 10.533 0 004.685 1.125h.05c1.403 0 2.765-.272 4.047-.804a10.417 10.417 0 003.347-2.231 10.475 10.475 0 003.103-7.418 10.46 10.46 0 00-.815-4.116zm-3.542 10.266A8.673 8.673 0 0111 19.719h-.04a8.75 8.75 0 01-4.057-1.02l-.197-.105h-3.3v-3.3l-.105-.197a8.75 8.75 0 01-1.02-4.057 8.665 8.665 0 012.522-6.183 8.653 8.653 0 016.16-2.576h.04c1.171 0 2.308.228 3.38.678a8.664 8.664 0 012.788 1.875 8.683 8.683 0 012.552 6.206 8.685 8.685 0 01-2.58 6.157z"></path>
  </symbol>
  <symbol xmlns="http://www.w3.org/2000/svg" viewBox="0 0 24 24" id="info-circle">
    <path d="M12 1.5C6.202 1.5 1.5 6.202 1.5 12S6.202 22.5 12 22.5 22.5 17.798 22.5 12 17.798 1.5 12 1.5zm0 19.219A8.72 8.72 0 013.281 12 8.72 8.72 0 0112 3.281 8.72 8.72 0 0120.719 12 8.72 8.72 0 0112 20.719z"></path>
    <path d="M10.875 7.875a1.125 1.125 0 102.25 0 1.125 1.125 0 00-2.25 0zm1.688 2.625h-1.126a.188.188 0 00-.187.188v6.374c0 .104.084.188.188.188h1.124a.188.188 0 00.188-.188v-6.375a.188.188 0 00-.188-.187z"></path>
  </symbol>
  <symbol xmlns="http://www.w3.org/2000/svg" viewBox="0 0 20 20" id="users">
    <path d="M18.906 16.094h-1.875v-1.875a.188.188 0 00-.187-.188h-1.125a.188.188 0 00-.188.188v1.875h-1.875a.188.188 0 00-.187.187v1.125c0 .103.084.188.187.188h1.875v1.875c0 .103.085.187.188.187h1.125a.188.188 0 00.187-.187v-1.875h1.875a.188.188 0 00.188-.188v-1.125a.188.188 0 00-.188-.187zM6.754 9.68a5.965 5.965 0 01.068-1.709.189.189 0 00-.106-.206 2.962 2.962 0 01-.865-.588 2.99 2.99 0 01-.907-2.236 2.985 2.985 0 01.851-2.006 2.984 2.984 0 012.185-.907 2.996 2.996 0 012.493 1.378.187.187 0 00.218.075 5.814 5.814 0 011.296-.29.188.188 0 00.148-.272A4.696 4.696 0 008.017.344C5.42.304 3.255 2.434 3.255 5.03c0 1.472.677 2.785 1.739 3.645a7.046 7.046 0 00-2.028 1.415 6.97 6.97 0 00-2.058 4.782.188.188 0 00.188.192H2.41c.1 0 .185-.08.187-.18a5.297 5.297 0 011.564-3.598 5.29 5.29 0 012.453-1.4.192.192 0 00.139-.206zm10.558-.619a4.69 4.69 0 00-4.615-4.687c-2.596-.04-4.76 2.09-4.76 4.687 0 1.472.68 2.785 1.74 3.645a7.055 7.055 0 00-2.026 1.416A6.97 6.97 0 005.594 18.9a.188.188 0 00.187.193h1.313c.1 0 .185-.08.187-.18a5.297 5.297 0 011.563-3.598 5.307 5.307 0 013.78-1.566 4.688 4.688 0 004.688-4.688zm-2.566 2.122a2.978 2.978 0 01-2.121.879 2.978 2.978 0 01-2.121-.88 2.982 2.982 0 01-.88-2.151 3.004 3.004 0 012.97-2.97 3.017 3.017 0 012.133.858c.581.57.9 1.332.9 2.142a2.99 2.99 0 01-.881 2.122z"></path>
  </symbol>
  <symbol xmlns="http://www.w3.org/2000/svg" viewBox="0 0 24 24" id="message">
    <path d="M18.172 5.834a8.663 8.663 0 00-2.79-1.875 8.676 8.676 0 00-3.379-.678h-.04a8.653 8.653 0 00-6.16 2.576 8.665 8.665 0 00-2.52 6.183 8.75 8.75 0 001.019 4.057l.105.197v3.3h3.3l.197.105a8.75 8.75 0 004.057 1.02h.04c2.32 0 4.5-.896 6.143-2.522a8.685 8.685 0 002.58-6.157 8.683 8.683 0 00-2.552-6.206zM7.313 13.125a1.125 1.125 0 010-2.25 1.125 1.125 0 010 2.25zm4.688 0a1.125 1.125 0 010-2.25 1.125 1.125 0 010 2.25zm4.687 0a1.125 1.125 0 010-2.25 1.125 1.125 0 010 2.25z" fill="#E6F7FF"></path>
    <path d="M15.563 12a1.125 1.125 0 102.25 0 1.125 1.125 0 00-2.25 0zm-9.376 0a1.125 1.125 0 102.25 0 1.125 1.125 0 00-2.25 0z" fill="#1890FF"></path>
    <path d="M21.685 7.931A10.503 10.503 0 0012 1.5h-.047A10.475 10.475 0 001.5 12.05a10.533 10.533 0 001.125 4.684v3.563a1.078 1.078 0 001.078 1.078h3.565a10.533 10.533 0 004.685 1.125h.05c1.403 0 2.765-.272 4.047-.804a10.417 10.417 0 003.347-2.231 10.475 10.475 0 003.103-7.418 10.46 10.46 0 00-.815-4.116zm-3.542 10.266A8.673 8.673 0 0112 20.719h-.04a8.75 8.75 0 01-4.057-1.02l-.197-.105h-3.3v-3.3l-.105-.197a8.75 8.75 0 01-1.02-4.057 8.665 8.665 0 012.522-6.183 8.653 8.653 0 016.16-2.576h.04c1.171 0 2.308.228 3.38.678a8.664 8.664 0 012.788 1.875 8.683 8.683 0 012.552 6.206 8.685 8.685 0 01-2.58 6.157z" fill="#1890FF"></path>
    <path d="M10.875 12a1.125 1.125 0 102.25 0 1.125 1.125 0 00-2.25 0z" fill="#1890FF"></path>
  </symbol>
  <symbol xmlns="http://www.w3.org/2000/svg" viewBox="0 0 24 24" id="profile">
    <path d="M20.625 2.625H3.375a.75.75 0 00-.75.75v17.25c0 .415.335.75.75.75h17.25a.75.75 0 00.75-.75V3.375a.75.75 0 00-.75-.75zm-.938 17.063H4.313V4.313h15.375v15.375z" fill="#1890FF"></path>
    <path d="M4.313 19.688h15.375V4.313H4.313v15.375zm7.03-11.625c0-.104.085-.188.188-.188h4.313c.103 0 .187.084.187.188v1.124a.188.188 0 01-.187.188H11.53a.188.188 0 01-.187-.188V8.063zm0 3.374c0-.103.085-.187.188-.187h4.313c.103 0 .187.084.187.188v1.124a.188.188 0 01-.187.188H11.53a.188.188 0 01-.187-.188v-1.124zm0 3.376c0-.104.085-.188.188-.188h4.313c.103 0 .187.084.187.188v1.124a.188.188 0 01-.187.188H11.53a.188.188 0 01-.187-.188v-1.124zM8.907 7.686a.937.937 0 110 1.875.937.937 0 010-1.874zm0 3.375a.937.937 0 110 1.875.937.937 0 010-1.874zm0 3.376a.937.937 0 110 1.874.937.937 0 010-1.875z" fill="#E6F7FF"></path>
    <path d="M7.969 15.375a.937.937 0 101.875 0 .937.937 0 00-1.875 0zm0-3.375a.937.937 0 101.875 0 .937.937 0 00-1.875 0zm0-3.375a.937.937 0 101.875 0 .937.937 0 00-1.875 0zm3.562 7.5h4.313a.188.188 0 00.187-.188v-1.124a.188.188 0 00-.187-.188H11.53a.188.188 0 00-.187.188v1.124c0 .104.084.188.187.188zm0-3.375h4.313a.188.188 0 00.187-.188v-1.124a.188.188 0 00-.187-.188H11.53a.188.188 0 00-.187.188v1.124c0 .104.084.188.187.188zm0-3.375h4.313a.188.188 0 00.187-.188V8.063a.188.188 0 00-.187-.188H11.53a.188.188 0 00-.187.188v1.124c0 .104.084.188.187.188z" fill="#1890FF"></path>
  </symbol>
  <symbol xmlns="http://www.w3.org/2000/svg" viewBox="0 0 24 24" id="shop">
    <path d="M19.676 8.063H4.324c-.007 0-.011.004-.011.011v2.138c0 1.401 1.148 2.538 2.561 2.538a2.57 2.57 0 002.23-1.282.387.387 0 01.67 0A2.563 2.563 0 0012 12.75a2.56 2.56 0 002.229-1.287.378.378 0 01.326-.19h.014c.136 0 .258.073.325.19a2.567 2.567 0 002.232 1.287c1.413 0 2.561-1.137 2.561-2.538V8.074c0-.007-.004-.011-.011-.011z" fill="#E6F7FF"></path>
    <path d="M20.672 6.377V3.375a.75.75 0 00-.75-.75H4.08a.75.75 0 00-.75.75v3.002a.75.75 0 00-.704.748v3.087a4.148 4.148 0 00.338 1.65c.1.239.225.464.366.677v8.086c0 .413.335.75.75.75h15.843a.75.75 0 00.75-.75v-8.086a4.19 4.19 0 00.703-2.327V7.125a.75.75 0 00-.703-.748zM5.016 4.313h13.969v2.062H5.016V4.312zM13.5 19.69h-3v-2.44h3v2.44zm5.494 0H15V16.5a.75.75 0 00-.75-.75h-4.5a.75.75 0 00-.75.75v3.19H5.016v-5.677a4.225 4.225 0 001.86.424 4.283 4.283 0 002.557-.848.015.015 0 01.015 0 4.247 4.247 0 002.557.848 4.238 4.238 0 002.557-.848.015.015 0 01.014 0 4.247 4.247 0 002.557.848 4.233 4.233 0 001.861-.424v5.677zm.694-9.478c0 1.401-1.149 2.538-2.562 2.538-.956 0-1.79-.518-2.231-1.287a.375.375 0 00-.326-.19h-.014a.378.378 0 00-.326.19A2.56 2.56 0 0112 12.75a2.563 2.563 0 01-2.226-1.282.387.387 0 00-.67 0 2.57 2.57 0 01-2.23 1.282c-1.413 0-2.561-1.137-2.561-2.538V8.074c0-.007.005-.011.012-.011h15.351c.007 0 .012.004.012.011v2.138z" fill="#1890FF"></path>
  </symbol>
    <symbol xmlns="http://www.w3.org/2000/svg" viewBox="0 0 20 20" id="prize">
    <path d="M18.344 1.75h-2.157V.812A.188.188 0 0016 .625H4a.188.188 0 00-.188.188v.937H1.656A1.031 1.031 0 00.625 2.781V6.25a3.85 3.85 0 003.24 3.797 6.007 6.007 0 005.291 5.168v2.465H4.562a.75.75 0 00-.75.75v.758c0 .103.085.187.188.187h12a.188.188 0 00.188-.188v-.757a.75.75 0 00-.75-.75h-4.594v-2.465a6.007 6.007 0 005.292-5.168 3.85 3.85 0 003.239-3.797V2.781a1.032 1.032 0 00-1.031-1.031zM3.812 8.303a2.156 2.156 0 01-1.5-2.053V3.437h1.5v4.866zM14.5 9.25a4.28 4.28 0 01-1.263 3.05 4.283 4.283 0 01-3.05 1.262h-.374a4.28 4.28 0 01-3.05-1.263A4.283 4.283 0 015.5 9.25V2.312h9V9.25zm3.188-3c0 .96-.631 1.777-1.5 2.053V3.437h1.5V6.25z" fill="#1890FF"></path>
  </symbol>
    <symbol xmlns="http://www.w3.org/2000/svg" viewBox="0 0 20 20" id="flag">
    <path d="M18.625 5.148h-6V2.5a.75.75 0 00-.75-.75H2.312V.812a.188.188 0 00-.187-.187H.812a.188.188 0 00-.187.188v18.375c0 .103.084.187.188.187h1.312a.188.188 0 00.188-.188V13h5.812v2.648c0 .415.335.75.75.75h9.75a.75.75 0 00.75-.75v-9.75a.75.75 0 00-.75-.75zM2.312 11.313V3.436h8.626v7.876H2.312zm15.376 3.398H9.813V13h2.624a.188.188 0 00.188-.188V6.837h5.063v7.875z" fill="#1890FF"></path>
  </symbol>
  <symbol xmlns="http://www.w3.org/2000/svg" viewBox="0 0 18 18" id="headphones">
    <path d="M9 0a9 9 0 00-9 9v8.438c0 .311.25.562.563.562h4.312c.827 0 1.5-.673 1.5-1.5v-4.875c0-.827-.673-1.5-1.5-1.5H1.687V9a7.313 7.313 0 0114.626 0v1.125h-3.188c-.827 0-1.5.673-1.5 1.5V16.5c0 .827.673 1.5 1.5 1.5h4.313a.56.56 0 00.562-.563V9a9 9 0 00-9-9zM4.687 11.813v4.5h-3v-4.5h3zm11.625 4.5h-3v-4.5h3v4.5z" fill="#1890FF"></path>
  </symbol>
  <symbol xmlns="http://www.w3.org/2000/svg" viewBox="0 0 22 22" id="home">
    <path d="M21.288 10.953c0-.002-.002-.002-.002-.005l-.042-.049c-.003-.002-.005-.007-.01-.01l-.051-.055-9.056-9.05-.607-.607a.738.738 0 00-1.041 0L.816 10.836a1.491 1.491 0 00-.375.623l-.014.05-.007.025-.007.028a.363.363 0 00-.01.05c0 .002 0 .007-.002.01a1.29 1.29 0 00-.024.212v.078c0 .011 0 .023.003.035 0 .012 0 .021.002.033l.002.035c0 .014.003.028.005.042l.002.021.007.059v.002a1.52 1.52 0 001.5 1.254h.997v7.638h16.211v-7.633h1.017c.202 0 .397-.04.575-.115a1.491 1.491 0 00.926-1.387c0-.345-.118-.676-.336-.943zm-8.976 8.39H9.687v-4.78h2.625v4.78zm5.107-7.633v7.634h-3.607V14a.937.937 0 00-.938-.938h-3.75a.937.937 0 00-.937.938v5.344H4.58V11.71H2.33l8.672-8.665.541.542 8.128 8.123H17.42z" fill="#1890FF"></path>
  </symbol>
  <symbol xmlns="http://www.w3.org/2000/svg" viewBox="0 0 18 22" id="rocket">
    <path d="M17.25 16.25a6.56 6.56 0 00-3.75-5.927V6.437c0-.354-.124-.696-.354-.966L9.574 1.236a.749.749 0 00-1.148 0L4.854 5.47a1.5 1.5 0 00-.354.966v3.886A6.56 6.56 0 00.75 16.25h3.668a1.81 1.81 0 00-.082.558 2.276 2.276 0 001.512 2.142A3.417 3.417 0 009 21.031a3.41 3.41 0 001.908-.581c.553-.37.982-.888 1.242-1.5.396-.14.746-.388 1.01-.715.324-.404.5-.907.502-1.425 0-.197-.026-.384-.073-.558l3.661-.002zM4.594 14.656H2.606a4.987 4.987 0 011.987-2.562v2.562zm1.5-4.333V6.472L9 3.027l2.906 3.445v8.184H6.094v-4.333zm5.627 7.057a.632.632 0 01-.4.08l-.458-.057-.065.455A1.825 1.825 0 019 19.416c-.898 0-1.671-.67-1.798-1.558l-.065-.457-.457.058a.66.66 0 01-.731-.654c0-.248.138-.454.342-.557h5.42a.619.619 0 01.343.557.665.665 0 01-.333.575zm1.685-2.724v-2.562a4.958 4.958 0 011.988 2.562h-1.988z" fill="#1890FF"></path>
  </symbol>
  <symbol xmlns="http://www.w3.org/2000/svg" viewBox="0 0 24 24" id="picture">
    <path d="M21.75 3.75H2.25a.75.75 0 00-.75.75v15c0 .415.335.75.75.75h19.5a.75.75 0 00.75-.75v-15a.75.75 0 00-.75-.75zm-.938 14.813H3.188v-.936l3.247-3.85 3.518 4.171 5.472-6.487 5.389 6.389v.712zm0-3.043L15.567 9.3a.186.186 0 00-.286 0l-5.33 6.319-3.374-4.001a.186.186 0 00-.286 0l-3.104 3.68v-9.86h17.625V15.52z" fill="#1890FF"></path>
    <path d="M9.952 17.948l-3.518-4.171-3.247 3.85v.936h17.625v-.713l-5.388-6.39-5.472 6.488z" fill="#E6F7FF"></path>
    <path d="M3.188 15.298l3.103-3.68c.075-.09.21-.09.286 0l3.375 4 5.33-6.318a.186.186 0 01.285 0l5.245 6.22V5.438H3.188v9.86zm3.937-8.736a2.062 2.062 0 110 4.125 2.062 2.062 0 010-4.124z" fill="#E6F7FF"></path>
    <path d="M6.469 8.625a.656.656 0 101.312 0 .656.656 0 00-1.312 0z" fill="#E6F7FF"></path>
    <path d="M7.125 10.688a2.062 2.062 0 100-4.124 2.062 2.062 0 000 4.123zm0-2.72a.655.655 0 110 1.313.655.655 0 110-1.312z" fill="#1890FF"></path>
  </symbol>
  <symbol xmlns="http://www.w3.org/2000/svg" viewBox="0 0 24 24" id="smile">
    <path d="M12 1.5C6.202 1.5 1.5 6.202 1.5 12S6.202 22.5 12 22.5 22.5 17.798 22.5 12 17.798 1.5 12 1.5zm0 19.219A8.72 8.72 0 013.281 12 8.72 8.72 0 0112 3.281 8.72 8.72 0 0120.719 12 8.72 8.72 0 0112 20.719z" fill="#1890FF"></path>
    <path d="M12 3.281A8.72 8.72 0 003.281 12 8.72 8.72 0 0012 20.719 8.72 8.72 0 0020.719 12 8.72 8.72 0 0012 3.281zM6.75 9.867a1.125 1.125 0 012.25 0 1.125 1.125 0 01-2.25 0zM12 16.242a3.759 3.759 0 01-3.75-3.553.188.188 0 01.188-.197h1.127a.19.19 0 01.19.174 2.252 2.252 0 004.49 0 .19.19 0 01.19-.174h1.127a.188.188 0 01.188.197A3.759 3.759 0 0112 16.242zm4.125-5.25a1.125 1.125 0 010-2.25 1.125 1.125 0 010 2.25z" fill="#E6F7FF"></path>
    <path d="M6.75 9.867a1.125 1.125 0 102.25 0 1.125 1.125 0 00-2.25 0zm8.813 2.625h-1.128a.19.19 0 00-.19.174 2.252 2.252 0 01-4.49 0 .19.19 0 00-.19-.174H8.438a.188.188 0 00-.188.197A3.759 3.759 0 0012 16.242a3.759 3.759 0 003.75-3.553.187.187 0 00-.188-.197zM15 9.867a1.125 1.125 0 102.25 0 1.125 1.125 0 00-2.25 0z" fill="#1890FF"></path>
  </symbol>
  <symbol xmlns="http://www.w3.org/2000/svg" viewBox="0 0 18 20" id="user">
    <path d="M12.898 13.056a4.018 4.018 0 011.907-.478h.003c.07 0 .103-.084.051-.131a8.71 8.71 0 00-2.43-1.542c-.01-.005-.019-.007-.028-.012a5.814 5.814 0 002.402-4.713 5.806 5.806 0 00-5.8-5.813 5.805 5.805 0 00-5.8 5.813 5.81 5.81 0 002.406 4.713c-.01.005-.02.007-.029.012a8.733 8.733 0 00-2.796 1.889 8.751 8.751 0 00-1.884 2.8 8.757 8.757 0 00-.69 3.237.187.187 0 00.188.192h1.404a.19.19 0 00.188-.182 6.993 6.993 0 012.053-4.789 6.958 6.958 0 014.962-2.06 6.95 6.95 0 013.703 1.057.19.19 0 00.19.007zm-3.893-2.845A3.998 3.998 0 016.159 9.03 4.013 4.013 0 014.98 6.18a4.01 4.01 0 011.18-2.85 3.99 3.99 0 012.845-1.182c1.075 0 2.083.42 2.845 1.182a4.013 4.013 0 011.179 2.85c0 1.075-.42 2.088-1.18 2.85a3.998 3.998 0 01-2.844 1.18zm8.62 5.578h-1.969V13.82a.188.188 0 00-.187-.187h-1.313a.188.188 0 00-.187.187v1.97h-1.97a.188.188 0 00-.187.187v1.312a.19.19 0 00.188.188h1.969v1.968c0 .103.084.188.187.188h1.313a.188.188 0 00.187-.188v-1.968h1.969a.188.188 0 00.187-.188v-1.312a.188.188 0 00-.187-.188z" fill="#1890FF"></path>
  </symbol>
</svg>
