<svg width="0" height="0" class="hidden">
  <symbol xmlns="http://www.w3.org/2000/svg" viewBox="0 0 16 22" id="bell">
    <path d="M15.125 17h-.563V9.031a6.561 6.561 0 00-5.624-6.494v-.912a.937.937 0 10-1.876 0v.912A6.561 6.561 0 001.438 9.03V17H.875a.75.75 0 00-.75.75v.75c0 .103.084.188.188.188h5.062A2.627 2.627 0 008 21.313a2.627 2.627 0 002.625-2.625h5.063a.188.188 0 00.187-.188v-.75a.75.75 0 00-.75-.75zM8 19.813a1.125 1.125 0 01-1.125-1.125h2.25c0 .62-.504 1.125-1.125 1.125zM3.125 17V9.031a4.84 4.84 0 011.427-3.447A4.841 4.841 0 018 4.156c1.303 0 2.527.506 3.448 1.428a4.842 4.842 0 011.427 3.447V17h-9.75z"></path>
  </symbol>
  <symbol xmlns="http://www.w3.org/2000/svg" viewBox="0 0 22 22" id="chat">
    <path d="M9.875 11a1.125 1.125 0 102.25 0 1.125 1.125 0 00-2.25 0zm4.688 0a1.125 1.125 0 102.25 0 1.125 1.125 0 00-2.25 0zm-9.375 0a1.125 1.125 0 102.25 0 1.125 1.125 0 00-2.25 0zm15.497-4.069A10.503 10.503 0 0011 .5h-.047A10.475 10.475 0 00.5 11.05a10.533 10.533 0 001.125 4.684v3.563a1.078 1.078 0 001.078 1.078h3.565a10.533 10.533 0 004.685 1.125h.05c1.403 0 2.765-.272 4.047-.804a10.417 10.417 0 003.347-2.231 10.475 10.475 0 003.103-7.418 10.46 10.46 0 00-.815-4.116zm-3.542 10.266A8.673 8.673 0 0111 19.719h-.04a8.75 8.75 0 01-4.057-1.02l-.197-.105h-3.3v-3.3l-.105-.197a8.75 8.75 0 01-1.02-4.057 8.665 8.665 0 012.522-6.183 8.653 8.653 0 016.16-2.576h.04c1.171 0 2.308.228 3.38.678a8.664 8.664 0 012.788 1.875 8.683 8.683 0 012.552 6.206 8.685 8.685 0 01-2.58 6.157z"></path>
  </symbol>
  <symbol xmlns="http://www.w3.org/2000/svg" viewBox="0 0 24 24" id="info-circle">
    <path d="M12 1.5C6.202 1.5 1.5 6.202 1.5 12S6.202 22.5 12 22.5 22.5 17.798 22.5 12 17.798 1.5 12 1.5zm0 19.219A8.72 8.72 0 013.281 12 8.72 8.72 0 0112 3.281 8.72 8.72 0 0120.719 12 8.72 8.72 0 0112 20.719z"></path>
    <path d="M10.875 7.875a1.125 1.125 0 102.25 0 1.125 1.125 0 00-2.25 0zm1.688 2.625h-1.126a.188.188 0 00-.187.188v6.374c0 .104.084.188.188.188h1.124a.188.188 0 00.188-.188v-6.375a.188.188 0 00-.188-.187z"></path>
  </symbol>
  <symbol xmlns="http://www.w3.org/2000/svg" viewBox="0 0 20 20" id="users">
    <path d="M18.906 16.094h-1.875v-1.875a.188.188 0 00-.187-.188h-1.125a.188.188 0 00-.188.188v1.875h-1.875a.188.188 0 00-.187.187v1.125c0 .103.084.188.187.188h1.875v1.875c0 .103.085.187.188.187h1.125a.188.188 0 00.187-.187v-1.875h1.875a.188.188 0 00.188-.188v-1.125a.188.188 0 00-.188-.187zM6.754 9.68a5.965 5.965 0 01.068-1.709.189.189 0 00-.106-.206 2.962 2.962 0 01-.865-.588 2.99 2.99 0 01-.907-2.236 2.985 2.985 0 01.851-2.006 2.984 2.984 0 012.185-.907 2.996 2.996 0 012.493 1.378.187.187 0 00.218.075 5.814 5.814 0 011.296-.29.188.188 0 00.148-.272A4.696 4.696 0 008.017.344C5.42.304 3.255 2.434 3.255 5.03c0 1.472.677 2.785 1.739 3.645a7.046 7.046 0 00-2.028 1.415 6.97 6.97 0 00-2.058 4.782.188.188 0 00.188.192H2.41c.1 0 .185-.08.187-.18a5.297 5.297 0 011.564-3.598 5.29 5.29 0 012.453-1.4.192.192 0 00.139-.206zm10.558-.619a4.69 4.69 0 00-4.615-4.687c-2.596-.04-4.76 2.09-4.76 4.687 0 1.472.68 2.785 1.74 3.645a7.055 7.055 0 00-2.026 1.416A6.97 6.97 0 005.594 18.9a.188.188 0 00.187.193h1.313c.1 0 .185-.08.187-.18a5.297 5.297 0 011.563-3.598 5.307 5.307 0 013.78-1.566 4.688 4.688 0 004.688-4.688zm-2.566 2.122a2.978 2.978 0 01-2.121.879 2.978 2.978 0 01-2.121-.88 2.982 2.982 0 01-.88-2.151 3.004 3.004 0 012.97-2.97 3.017 3.017 0 012.133.858c.581.57.9 1.332.9 2.142a2.99 2.99 0 01-.881 2.122z"></path>
  </symbol>
</svg>
